<mxfile host="65bd71144e">
    <diagram id="NQbdevP67i4PQxkOO86s" name="Page-1">
        <mxGraphModel dx="724" dy="561" grid="1" gridSize="10" guides="1" tooltips="1" connect="1" arrows="1" fold="1" page="1" pageScale="1" pageWidth="827" pageHeight="1169" math="0" shadow="0">
            <root>
                <mxCell id="0"/>
                <mxCell id="1" parent="0"/>
                <mxCell id="148" value="" style="pointerEvents=1;verticalLabelPosition=bottom;shadow=0;dashed=0;align=center;html=1;verticalAlign=top;shape=mxgraph.electrical.miscellaneous.batteryStack;" parent="1" vertex="1">
                    <mxGeometry x="80" y="60" width="100" height="60" as="geometry"/>
                </mxCell>
                <mxCell id="149" value="&lt;font style=&quot;font-size: 18px&quot;&gt;-&lt;/font&gt;" style="text;html=1;resizable=0;autosize=1;align=center;verticalAlign=middle;points=[];fillColor=none;strokeColor=none;rounded=0;fontFamily=Helvetica;fontSize=11;fontColor=default;" parent="1" vertex="1">
                    <mxGeometry x="60" y="60" width="20" height="20" as="geometry"/>
                </mxCell>
                <mxCell id="150" value="&lt;font style=&quot;font-size: 18px&quot;&gt;+&lt;/font&gt;" style="text;html=1;resizable=0;autosize=1;align=center;verticalAlign=middle;points=[];fillColor=none;strokeColor=none;rounded=0;fontFamily=Helvetica;fontSize=11;fontColor=default;" parent="1" vertex="1">
                    <mxGeometry x="170" y="60" width="30" height="20" as="geometry"/>
                </mxCell>
                <mxCell id="151" value="&lt;font style=&quot;font-size: 18px&quot;&gt;5 V&lt;br&gt;&lt;/font&gt;" style="text;html=1;resizable=0;autosize=1;align=center;verticalAlign=middle;points=[];fillColor=none;strokeColor=none;rounded=0;fontFamily=Helvetica;fontSize=11;fontColor=default;" parent="1" vertex="1">
                    <mxGeometry x="110" y="30" width="40" height="20" as="geometry"/>
                </mxCell>
                <mxCell id="152" value="&lt;font style=&quot;font-size: 18px&quot;&gt;220&amp;nbsp;&lt;/font&gt;&lt;span style=&quot;color: rgb(32 , 33 , 36) ; font-family: &amp;#34;arial&amp;#34; , sans-serif ; font-size: 16px ; text-align: left ; background-color: rgb(255 , 255 , 255)&quot;&gt;Î©&lt;/span&gt;" style="text;html=1;resizable=0;autosize=1;align=center;verticalAlign=middle;points=[];fillColor=none;strokeColor=none;rounded=0;fontFamily=Helvetica;fontSize=11;fontColor=default;" parent="1" vertex="1">
                    <mxGeometry x="205" y="390" width="60" height="20" as="geometry"/>
                </mxCell>
                <mxCell id="154" style="edgeStyle=none;html=1;exitX=0;exitY=0.885;exitDx=0;exitDy=0;exitPerimeter=0;entryX=0;entryY=0.25;entryDx=0;entryDy=0;entryPerimeter=0;endArrow=none;endFill=0;" parent="1" source="155" edge="1">
                    <mxGeometry relative="1" as="geometry">
                        <mxPoint x="344" y="185" as="targetPoint"/>
                    </mxGeometry>
                </mxCell>
                <mxCell id="181" style="edgeStyle=none;html=1;exitX=1;exitY=0.115;exitDx=0;exitDy=0;exitPerimeter=0;endArrow=none;endFill=0;strokeColor=#FF3333;" parent="1" source="155" edge="1">
                    <mxGeometry relative="1" as="geometry">
                        <mxPoint x="190" y="90" as="targetPoint"/>
                    </mxGeometry>
                </mxCell>
                <mxCell id="155" value="" style="pointerEvents=1;verticalLabelPosition=bottom;shadow=0;dashed=0;align=center;html=1;verticalAlign=top;shape=mxgraph.electrical.electro-mechanical.2-way_switch;rotation=-180;" parent="1" vertex="1">
                    <mxGeometry x="242.5" y="139" width="75" height="26" as="geometry"/>
                </mxCell>
                <mxCell id="157" value="&lt;br&gt;" style="verticalLabelPosition=bottom;shadow=0;dashed=0;align=center;html=1;verticalAlign=top;shape=mxgraph.electrical.opto_electronics.led_2;pointerEvents=1;flipH=1;rotation=0;" parent="1" vertex="1">
                    <mxGeometry x="460" y="335" width="100" height="70" as="geometry"/>
                </mxCell>
                <mxCell id="158" value="Output&lt;br style=&quot;font-size: 18px;&quot;&gt;" style="text;html=1;resizable=0;autosize=1;align=center;verticalAlign=middle;points=[];fillColor=none;strokeColor=none;rounded=0;fontSize=18;" parent="1" vertex="1">
                    <mxGeometry x="475" y="310" width="70" height="30" as="geometry"/>
                </mxCell>
                <mxCell id="159" value="Input A" style="text;html=1;resizable=0;autosize=1;align=center;verticalAlign=middle;points=[];fillColor=none;strokeColor=none;rounded=0;fontSize=18;" parent="1" vertex="1">
                    <mxGeometry x="230" y="109" width="70" height="30" as="geometry"/>
                </mxCell>
                <mxCell id="160" value="Emmanuel&amp;nbsp;&lt;br&gt;TEJ3M&lt;br&gt;Unit #4-16" style="text;html=1;resizable=0;autosize=1;align=center;verticalAlign=middle;points=[];fillColor=none;strokeColor=none;rounded=0;fontSize=18;" parent="1" vertex="1">
                    <mxGeometry x="95" y="440" width="110" height="70" as="geometry"/>
                </mxCell>
                <mxCell id="161" style="edgeStyle=orthogonalEdgeStyle;rounded=0;orthogonalLoop=1;jettySize=auto;html=1;exitX=1;exitY=0.115;exitDx=0;exitDy=0;exitPerimeter=0;endArrow=none;endFill=0;fillColor=#f8cecc;strokeColor=#b85450;" parent="1" source="165" edge="1">
                    <mxGeometry relative="1" as="geometry">
                        <mxPoint x="192" y="90" as="targetPoint"/>
                        <Array as="points">
                            <mxPoint x="175" y="275"/>
                            <mxPoint x="175" y="90"/>
                        </Array>
                    </mxGeometry>
                </mxCell>
                <mxCell id="162" style="edgeStyle=orthogonalEdgeStyle;rounded=0;orthogonalLoop=1;jettySize=auto;html=1;exitX=1;exitY=0.885;exitDx=0;exitDy=0;exitPerimeter=0;endArrow=none;endFill=0;entryX=1;entryY=0.885;entryDx=0;entryDy=0;entryPerimeter=0;" parent="1" source="165" target="155" edge="1">
                    <mxGeometry relative="1" as="geometry">
                        <mxPoint x="210" y="213" as="targetPoint"/>
                    </mxGeometry>
                </mxCell>
                <mxCell id="163" style="edgeStyle=orthogonalEdgeStyle;rounded=0;orthogonalLoop=1;jettySize=auto;html=1;exitX=1;exitY=0.885;exitDx=0;exitDy=0;exitPerimeter=0;endArrow=none;endFill=0;entryX=0;entryY=0.5;entryDx=0;entryDy=0;entryPerimeter=0;" parent="1" source="165" target="168" edge="1">
                    <mxGeometry relative="1" as="geometry">
                        <mxPoint x="180" y="375" as="targetPoint"/>
                        <Array as="points">
                            <mxPoint x="180" y="255"/>
                            <mxPoint x="180" y="375"/>
                        </Array>
                    </mxGeometry>
                </mxCell>
                <mxCell id="164" style="edgeStyle=none;html=1;exitX=0;exitY=0.885;exitDx=0;exitDy=0;exitPerimeter=0;entryX=0;entryY=0.75;entryDx=0;entryDy=0;entryPerimeter=0;endArrow=none;endFill=0;" parent="1" source="165" edge="1">
                    <mxGeometry relative="1" as="geometry">
                        <mxPoint x="344" y="215" as="targetPoint"/>
                    </mxGeometry>
                </mxCell>
                <mxCell id="165" value="" style="pointerEvents=1;verticalLabelPosition=bottom;shadow=0;dashed=0;align=center;html=1;verticalAlign=top;shape=mxgraph.electrical.electro-mechanical.2-way_switch;rotation=-180;" parent="1" vertex="1">
                    <mxGeometry x="242.5" y="252" width="75" height="26" as="geometry"/>
                </mxCell>
                <mxCell id="166" style="edgeStyle=orthogonalEdgeStyle;rounded=0;orthogonalLoop=1;jettySize=auto;html=1;entryX=0;entryY=0.5;entryDx=0;entryDy=0;endArrow=none;endFill=0;" parent="1" source="168" target="148" edge="1">
                    <mxGeometry relative="1" as="geometry"/>
                </mxCell>
                <mxCell id="167" style="edgeStyle=none;html=1;exitX=1;exitY=0.5;exitDx=0;exitDy=0;exitPerimeter=0;entryX=1;entryY=0.57;entryDx=0;entryDy=0;entryPerimeter=0;endArrow=none;endFill=0;" parent="1" source="168" target="157" edge="1">
                    <mxGeometry relative="1" as="geometry"/>
                </mxCell>
                <mxCell id="168" value="" style="pointerEvents=1;verticalLabelPosition=bottom;shadow=0;dashed=0;align=center;html=1;verticalAlign=top;shape=mxgraph.electrical.resistors.resistor_2;" parent="1" vertex="1">
                    <mxGeometry x="185" y="365" width="100" height="20" as="geometry"/>
                </mxCell>
                <mxCell id="169" value="Input B" style="text;html=1;resizable=0;autosize=1;align=center;verticalAlign=middle;points=[];fillColor=none;strokeColor=none;rounded=0;fontSize=18;" parent="1" vertex="1">
                    <mxGeometry x="195" y="280" width="70" height="30" as="geometry"/>
                </mxCell>
                <mxCell id="172" style="edgeStyle=none;html=1;exitX=1;exitY=0.5;exitDx=0;exitDy=0;exitPerimeter=0;entryX=0;entryY=0.57;entryDx=0;entryDy=0;entryPerimeter=0;endArrow=none;endFill=0;" parent="1" target="157" edge="1">
                    <mxGeometry relative="1" as="geometry">
                        <mxPoint x="560" y="200" as="sourcePoint"/>
                    </mxGeometry>
                </mxCell>
                <mxCell id="175" value="&lt;font style=&quot;font-size: 23px&quot;&gt;XOR GATE&lt;/font&gt;" style="text;html=1;resizable=0;autosize=1;align=center;verticalAlign=middle;points=[];fillColor=none;strokeColor=none;rounded=0;" parent="1" vertex="1">
                    <mxGeometry x="240" y="470" width="130" height="20" as="geometry"/>
                </mxCell>
                <mxCell id="184" style="edgeStyle=none;html=1;exitX=1;exitY=0.5;exitDx=0;exitDy=0;exitPerimeter=0;endArrow=none;endFill=0;" edge="1" parent="1" source="183">
                    <mxGeometry relative="1" as="geometry">
                        <mxPoint x="560" y="200" as="targetPoint"/>
                    </mxGeometry>
                </mxCell>
                <mxCell id="183" value="" style="verticalLabelPosition=bottom;shadow=0;dashed=0;align=center;html=1;verticalAlign=top;shape=mxgraph.electrical.logic_gates.logic_gate;operation=xor;" vertex="1" parent="1">
                    <mxGeometry x="340" y="170" width="100" height="60" as="geometry"/>
                </mxCell>
                <mxCell id="185" value="" style="shape=image;verticalLabelPosition=bottom;labelBackgroundColor=#ffffff;verticalAlign=top;aspect=fixed;imageAspect=0;image=data:image/png,iVBORw0KGgoAAAANSUhEUgAAANEAAAC1CAIAAABOPY30AAAgAElEQVR4nO2deXAcZXr/u3u6e+77lOaURvdhWRrkSz5kGQv5AB+Ll42BYndDMOF2JVBJKBbY2qpA1tksZlNrTEG8Swg4YK8x2GBjY4RkWZZseXSg+75mpLnvq6cnf7y/6KeyjNHZGjv9+U/q6+l3vv32+779vN8XTiQSEA0NhSDLHQDN/zlozdFQDa05GqqhNUdDNbTmaKiG1hwN1dCao6EaWnM0VENrjoZqaM3RUA06y/3279+/pHHQ3On89re/VavVs9kTnuX3VhiGX3jhBZVKtbDAaO5CgsHgG2+8YTabc3NzZ7P/HDTX0tJSWFi4sPBo7kIcDoder29sbJyl5uj2HA3V0JqjoRpaczRUQ2uOhmpozdFQDa05GqqhNUdDNbP9DnF74vG42Wx2u90Gg8FoNEIQFIvFGhoafD5fcXGxXC5HEMRqtTY0NDQ3N8MwLJfL7733Xq1Wi+N4KBTq6uq6fPmy0+mcOmFeXt7q1as1Gs3Mazmdzrq6uhs3bkAQhGGYwWCoqqoSCAQIcuvnx+v1tra2CoXCrKwsHMcXcpsWi6Wnp0ev1+M4Pj4+zmQys7Ozx8fHOzs7V61aJRKJYBi+6RCCIBoaGm7cuDH97lAULSwsXL9+vVAonHnI/HC73c3NzSqVKj09HcOwm7b6fL7Ozk4Gg1FQULDAQlg4i6O5RCLhcDiuXLkyPj4uk8m4XO7o6Ognn3xiNBpzc3NJkhwZGWlsbGxqarJYLBAETU5ORiKRTZs2ZWVlhUKh5ubm48ePKxQKPp8PQVA0Gh0ZGWEwGEKhEPxnCovFUldXV1NTY7FYOBwODMNjY2M8Hq+srOyWPzkEQR6P57vvvtPr9WlpaQss7kgk4nQ6lUql0+lsbGzk8/lGo3FwcPDs2bNGo1EgEDAYjJkl43a7h/8Xj8eTm5srEomUSiVBEIlEYrE0RxCE0+kUCAS3HOT3+XxXrlxhMpmZmZl3ieZQFN2wYYPdbu/t7W1qasrOzq6uro5Gozt27FCr1cFg8MqVK+3t7Zs3b966dWsikRgfHz906BAMw1wuVywWYxiWn5//4osvpqenQxAUCASOHDnS39+fm5ubnZ09dRWCIC5fvvztt9+uXLnyV7/6lUQiCQaDly5dOnv2rF6v5/F4CILYbLbh4WG/34+iqFarTUlJGR4eHh0dJUlydHTUaDTGYrHBwcGJiQmSJDMyMlQq1dRvEI/HbTZbJBJRqVQoilosllgsplQqmUym1+udnJyUSqVFRUUsFqunp6erq0sqlY6OjoJjx8bGJiYmUBRVq9UpKSlT4sMwbPv27du3b7fZbKdOners7Hz22WcNBgMEQT6fr6enB4SqUCjEYvHk5GRvby8EQRwOx2AwyGSyYDDocDgikYjH4wkEAkql0mAwcDgct9s9MjJit9txHNfpdBqNhsfjFRUVgfoeqNxut8MwnJmZKZVKx8bGRkZGMAwbHh7OzMwMh8Pd3d1+v5/H4+n1eqlUCiRrsVgIguDz+Xq9nsViLdbzcLNaFutEbDZ748aNHo/niy++sFgsX3/99fPPP69Wq1EUHR0ddTqdOTk5mzZtgiAIhmG1Wv2LX/zi1KlT3d3dxcXFM0+lVqvtdnsgEJj+f5fLVV9fX1BQsG3bNolEAkEQi8VavXp1XV1dIBCIRCLBYPDs2bMfffTRwMAAhmG7d+/+67/+6/Pnz1+6dEkgEMjlcplMNjo6+sc//rG6ujoQCBw4cOChhx5KS0sDEgmHw7W1td3d3Y8++qhAIDh58qTdbv/Zz36m1WobGxvPnTu3efPmxsbGjIyMxsbGjz/+OC0tTaVSZWRkeL3ec+fO1dXVxWKxffv27d+/X6FQ/GiJ9fT0HD16tL+/X6PRVFZWFhcXnzx58t1332UwGBKJ5MCBAzt37uzv7z9z5szk5OTAwEB3d/eaNWtefPHFnJychoaGP/3pTw0NDSKR6MEHH3z66aftdvuxY8dMJlNZWVlzc/N7773X2NiYSCSeeeaZHTt2VFdXX7hwAYIgqVQqEona2tp++9vfjo2NaTSaX/7yl5WVlbFY7Pz583/+859xHC8qKnryySe1Wm2yaw6CII1GYzKZampqXnrppb/7u78zmUzgt+zt7SVJ0mg0Tq/VhUKh1+sdHx8H7T+SJKPRaDQahSDI6/V2dXXxeDyxWDz9/CMjI6FQSC6Xg/+TJBmPxwUCwauvvoqiKEEQX3zxhdVqfe2110wmU2tr66uvvjo5Obl//34Wi6XX63ft2jU+Pv7ZZ59lZGS89dZbHR0dhw4dOnfu3E9/+lO5XA5BEI7jBQUFra2toVAIvPVgGPb5fNFodHJy0mQy8fl8GIZ1Ol1eXl5eXh6fz9+7d29dXd2pU6d+//vfP/fccxcvXjSbzbW1tXv37p1NiXm93j179uzbt48kyQsXLvT19V27dk0kEv3Hf/zH2NjY4OAgBEE+nw/H8Q8//NDlcj377LNtbW3hcLinp6eqquq9996z2Wzvvffe0NDQVBtuYGCgt7e3qqrqP//zPx0Ox+9+97tgMPjggw/iOM5kMh988MH+/v4jR478/Oc/37Vr1+nTpxsbG9lstslkikajLBbr3/7t39LT02c2EhaRxdQcBEGpqak5OTlNTU2rVq26/VMiEAhEIhFQYSQSqa2tPXnyJLjVRCLx0EMPPfDAAzqd7qaj5HK5SCTCMMzn81VXV7/55ps9PT0QBP3ud7+rqqravXt3PB4H5xSLxSKRaHrHIhKJjI2NDQwM/PKXv2QwGJmZmStXrmSz2aFQCOyAIIhYLLbZbOPj4wKBwGg0MpnMgYEBgUDQ39+/e/fum+rdqaPWrVuXm5srFouNRqPD4Zh9cQmFQplMxmaz2Wz23r17d+7cCVoIKpXK7XaDfcRicUpKikQiYbPZRUVFPB5v+qXVavWLL77IYrFGRkZmBiaVSl9++WUWizUxMQH+GY1GA4GAVCrdtGkTm81eu3ZtZ2cnaHXgOC6TycRi8RJVb1MspubC4fCNGzeGh4c3bdp0/PjxnJwcsVj8Q91JBEEQBAG3h+P4ypUr9+3bp1arOzo6Tp48uXr16qlX3nRcLpfP5yMIgsPhlJWV/fu//7vL5Xr33XdZLBbox/zXf/3XJ598kkgkSJLEMIwgiKljE4lEPB4fHh4+cOAAl8tNJBI2m2337t2rVq2aCkksFmu12nA4PDk5yeFwxGJxIBBwu91+v18qlYbD4VveiE6nEwqFKIoyGIw51RAymQw8QolEYmRk5E9/+tP58+chCPJ4PBs2bNiwYQMEQVwuNyUlBUEQBoOBoiioaBOJxKeffnr48GGVSvXCCy+Ul5dPCSU9PZ0giOPHj//hD39AEOTNN98sLS2d2hqLxdxudyAQwHEchmHwZKIoSpIki8VKSUlhs9l3kuba29t7enoKCwuLi4tPnz795Zdf7tq1i8/nazSakZGR0dFRk8mEov/vipOTk4lEQiQScblcGIYFAsGKFSvS09MzMjJAP6C7u7ukpGRqfwiClEolg8Gw2+1er1epVILy8vv9oMkfCoUuX77scrkeffRRlUrlcDjOnDlzkwJQFNVoNHv37lUqlaBkDQaDVqsFW2EYxjCsuLjY6/VardacnBw2m2232/v6+oRCoVgstlqtt7xxHMfn9zLCMAzIyGazNTU1BQKBgwcP4jh+48aNqR8eQZCbeposFquwsJDNZq9fv97v91++fFmpVE7tw2az8/LyHn30UbAVtGUFAgHYymAw2Gw2i8UCf0YikVAoxGQypy70Q3XEIrJoF+jv76+trSUIoqKiori4uKKiorq6uru7OxQK6fV6oVDY3d3d1NQEQVAikbDb7SdOnAC9s6n7B4jF4vLycp/P19ra6nK5pm+SyWQFBQXd3d21tbVerxeCoEgk0tLSUl9f7/f7CYKwWCw4jldWVlZVVRkMBtAsmzocRVGRSAT6lbt27dq8eXM0GnW73SRJTr+KVqsdGBiwWq0MBkOpVKIo2tPTk5eXt3T9OAiCgsGg3W7n8Xi7d+/etm2bSCS6zc4DAwMtLS0cDmfPnj3l5eV+vz8cDk/dxcDAgNlsBm3NHTt2uN3uSCQydSyGYXw+PxKJdHV1RaPRzs5On88nFAo5HM4S3dpMFqees9lsn3766fj4+JYtW7KysjAMKy0tvX79+pkzZzAMy8jIKCoqCofDFy5cqK2tBYeEQqG1a9fq9frprz9Afn5+S0vL0NDQjRs3ysvLp55gJpO5cePGeDze0dExNDQEQRBJki6Xa+XKlWlpaQKBQK1WDw4OHjt2LCUlBcMwHMcjkQh4c7W3txsMBr1eX1xc3NDQMDAw4Ha7HQ7Hli1bpl8ahmGZTOb3+xEE4fF4UqmUz+f7fL78/PzpgmOxWF6vt62tDXSAFg6Px5PJZNeuXXv77beVSqXf749Go+FweHo1PwVJkj09Pd988w2Px4vH4xqNJjU1dapVShBEX1/fpUuX+Hx+KBQyGAwqlQo82L29vc3NzTqdrrCw8NSpU/X19RMTE6mpqYWFhVwud1FuZDYwXnvttdns9/rrr//t3/6tUqm85Va73d7Y2JiZmVlRUQHG1kHjoL29XafTKZVKjUYjFouHh4dra2vHxsYgCPqrv/qroqIiLpcbj8dDoRAYmgcNZBRF2Ww2aHOkpaVNH1WXSCRGo9Hv9zc0NHR3d9vtdo1Gc/DgwczMTC6Xy2KxbDab2WwOh8OrV69OSUnJyMhQKBR+v9/tdvN4vLy8vJSUlPHx8fr6+snJyXvvvXfTpk2g0zoFk8n0+XwGgyErK0soFBIEgeN4aWkpk8kMhUKxWCwtLU0mk9nt9rGxsZSUFI1GE4/H8/PzeTxeJBJJJBIKhWLmF5R4PB4MBrlcbl5eHviBw+FwLBbT6/UKhYLFYqEoOjw83NraimHYhg0bRCJRamoq6FKkpqaqVCrwftDr9VlZWQiCdHd3m83mSCSyffv27OxskiQDgYBOp8vMzGQwGG1tbS0tLTab7Wc/+1l6ejp4SFwuF5vNBo+o2Wzu6uqSSCRVVVWFhYUwDEciERzH8/Lybin02xAKhX7/+98/8cQTN5XkD0HnptMsFDo3nSbZoTVHQzW05miohtYcDdXQmqOhGlpzNFRDa46GamjN0VANrTkaqqE1R0M1tOZoqIbWHA3V0JqjoRpaczRUQ2uOhmpozdFQDa05GqqhNUdDNbTmaKiG1hwN1dCao6GaOc8qq6mpgSAIWPwt/PLNzc0WiyUtLW2659cUwDMGw7D7779/po+fzWa7evVqVlaW0Wicmkbv9/s7Ojr6+vruv//+RZmzOT4+fu3aNaVSWVpaOjXH3efz1dfXf/HFF5OTk+A/WVlZDz74YE5Ozk1xfvXVV0qlMiMj4yYjven4fL6GhobTp09PTk4iCLJz586qqqqb/IGmEw6Hr1696vf7165dC/ypZkkgEABeC7t27aJyQutNzK2ei8ViPT09vb29UzN4FwhwrrTb7TM3BQKB3t7e+vr6lpYWp9M5c06k3+/v6upyOBzTJ+IDv8Tm5mZg8bRwvF4vcJGZ/s9IJDI0NNTX12cwGIqLi4uLi10uV0NDA5i6O53u7m6LxXJLoxOAw+G4ePFiXV2dRqMpLi4uKirq6+s7e/bs8PDwTQYDUxAEMTAw0NnZGQwG53Qv0Wh0bGwMFM4s55guBfOcxw8Madra2thsttlsjkajmZmZRUVFYrEYmFjx+fzGxkahULhmzRqtVgs8kcLhMJi+29/f7/V6mUym2Wy+fv16KBTSarU3uTBNTk46nU6xWMxms5ubm7ds2TJXTxCCIK5duwZB0ODgoN1uVyqVYDrxxMREX18fg8Ho7+9nMBgrVqzIzs4GNoB8Pj89PR2G4Y6ODhiGeTxeW1tbXV3d4OBgbm5uRkbGlKkAiqJGo/GJJ55IS0uDIOizzz5rbW0dHR3V6XSzt/yIx+Pt7e0dHR2pqal79+4Vi8XAFOzixYsKhUIoFLrdbrvdbjAYJBJJJBJpaGjQ6XQTExPNzc0TExN6vX7t2rW9vb1SqbS3t3dyctJoNALnQ6vVOjg4uGrVKiaT6XQ6BwcHRSKRx+NpbGxsa2u7dOlSVVUVBXY4t2SemiNJ0mKxHD9+XCQSdXR0uFwutVr98MMPl5SUNDU1nThxorCwsKGhgcFghMNh4K159epV4HyIoqjZbO7r68vMzBwaGurs7BQKhQ6HY7rmwPkJgigtLQ2Hww0NDWVlZcDMdZYRJhKJWCx2+vRp4GNisVi4XK7FYtm/f39XV9fhw4fz8vJGR0dDoZDNZuNyuQiCnD9/Xq/Xa7VaBEFqampQFM3JyRkdHe3p6XG5XKAN8EOXEwqFwGlmTvVHMBjs6OiQSCSVlZXgZYogSHl5ObDO0Ol0/f39ZrN5x44dwCHqv//7v7dt2+b3+4eHh8fHx7u7u7Va7ccffwzsZgcHB4Fl04oVKzo6Oj7//PP8/Hwcx8fGxs6fP5+bm8tkMvv6+kZHRzs6OjZv3rykDiy3YaF+JQRBHD161Gazvf322z09PUajMRwOu1wupVJ54sSJ6urqr7/+Wq/X6/X6mccWFBRwOJy8vLySkpKb3DbD4fDExEQikSgsLPT7/VeuXLHZbBqNZq62BhAExWKxp59+OjU19eTJk21tbRMTEwRBXL16tbKy8oUXXmhvb6+vr29sbLznnntmHqvRaORyeTQaNRqNmzdvnl6BkSTp8Xja29uBUdz169eBj8ScKmOPx+PxeIDH1NQ/cRxXKBTAunXmIcBGNxQKORyOffv2EQQB7EtefvlloVD40UcftbS03NLig8lkmkymSCRy5cqVp5566ofslylgQf1WHMdNJhOPx1Or1cClBoIgJpOp0+nAL1RSUsJkMu12u9/vn9OZnU6ny+UiSZLBYCQSCTab3dfXN78mWnZ2tkqlkslkwIoVgiAURdeuXVtWViYWi3Nzc2Uy2djY2C39DG9DNBq9evXqI488snXr1q1btzY3NxsMBoVCsSjtJLlczmazZ7kzhmHbtm1LTU1Vq9V5eXkYhs1sViYVC6rngJ3bTU82hmEikWiBvdrh4eHPP//8yy+/RFE0kUhgGAbDcFFR0Twsq+Ry+U1HwTA8ZT8z7whZLNaWLVueeuopUIW3t7d/9NFHFotlx44dVPpqQf97OzP79UnLQsfnZtbPsVjM6/V6PB4Igjwej9vtjsVi03dIJBJjY2M3/XM6fr+/rq5u5cqVn3/+eWNj49WrV0+dOjU6OjowMDCP/jKwBb4pAKvVGggESJIMBoNut/um00YikdnUzcA/kMvlcrlcg8EgEomAheDsY5NIJMD93WazTb96e3u7XC6fvkIzSZJut9vj8cTj8ZtOAm6HIIhYLOZyuWaGbbPZFmucYVFY/DHhaDRqtVp7enoSiURfXx+GYXK5nMvlut3uvr4+u93u8XiAT/QPncFisdhstpSUlHvuuSc3NxcYRuM43tvbO9d39C2Jx+ONjY19fX2hUGhoaCgSieh0Og6HE4vFvv/++0AgYLFYzGYzWMpiljidTp/PN9MT8/awWKyioiKbzXby5Ekgu3g8fvr0aYvFotVqZTIZBEFut7u7u5sgiI6OjomJiZnPajweb2lp8Xq9DodjfHwcRVGVShWJRMAiBaFQqLOzc8qdOBlYZA9rCIJwHEdRtKam5pNPPsFxfN26dfn5+SKRyGg0NjU1/dM//VNeXh5YEwKCIB6P19vb29fXJxKJ8vPzwRm6urpwHNdqtWAcFYZhDoeTk5PT2NiYk5MDDHgXEiGCIAaD4cqVK9988w0EQUVFRWvXrpXJZCaT6dixY3//93+fl5fHZrOlUikEQUwmkyCIY8eOqVQqk8k05QoajUZbWlr+8R//EQSJomh2djawXJ1TJFlZWYFAoL6+/je/+Q0Yb1Or1Vu2bMnPz+dyuenp6R0dHcePH//mm28KCwv5fD6wg2Uymb29vadOnVq7di0EQYlE4te//rXf709LS6usrARWzBkZGa+88gowxgN9LwzDMAwbGRn54IMPHnvsMT6fT4GT60zmpjkmk1laWgpBkEAgwHF869atWq2WwWAwmcx169aBtwyo2HJzcxkMhlarLSsrS0lJQVEUuMG3t7drNJr169eTJCmVSrlc7vr1691uNxhoAKjV6nvvvTctLQ2UFAzDbDa7oqKivb39R3tbbDY7NzdXIBCw2WwURSsqKlJTUzkcDoZh2dnZfD5fJBJNTk5mZ2dnZGS43W6ZTLZ69WqDwQDD8OrVqx0Ox+DgoNFozM/PV6lUwHm9rKwMgiDgewyuwuFwiouLg8HglPusVCotLy/PzMyca89aIBCUlpZyudza2lqXywXDcFlZ2Zo1a4CUdTpdRUUFg8EIBAIrVqxQqVRZWVk8Hm/FihXQ//oYIwiSm5s7NjYWjUbLyspWrlwpFArT09P37dv31VdfyeXygoKCWCwGFjPJzs7etm0bk8lkMBjL1W+FErMDgqCWlpYf3c3pdP7lL3956aWXnE4nSZKzPPn86O/vP3ToUF1dHRhVnyWBQODSpUvPPPNMX18fWP1oSXnrrbfAoiJLcXJg4/rMM89cunQpEAgsxSVmg91u53K57e3ts9x/katWUMllZGQAO/DFPflNsNlsYJI/pwshCCISibKzs6kZhddqtVKpdImW2AJvgOzs7JtWwkhyaG9XmoVCe7vSJDu05miohtYcDdXQmqOhGlpzNFRDa46GamjN0VDN3D7UOBwOq9Xq9/s5HI5EIonH4+BDuEKhwHHc4/H4fD7wpRIk+iYSCblcDtaz93q9LBZLJpMlEgmLxUKSpEwmY7FYPp/P4/EwmUywWpTFYonH4xKJhMPhgHW6MAwDSYjgC7dYLOZyucFg0Ol0gu/ZEARNTk5Go1GRSMTj8UA+I4PBSElJgSDIZrNFIhGhUMjn88PhsN1uRxAkJSUFhmG73R4Oh8FSk5FIxGazwTCsUqkYDIbD4QiFQjweTyQSgXWqIQgCi3a6XK5AIMDlcsViMUEQYIFNpVKJYRhY6XX2hQNK4KbCsVqt8XhcKpWy2WxQAiCLE4IgkD8CCicQCLhcrtkXDli8MBgMejweBoOh0+lCoZDT6YxGo2KxmM/ne71et9sNlqONRCJOpzMSiYAVi28zgWjJNVdTU3P06FGz2Zyfn799+3aPx3P06FEIgh555JGUlJRvv/0WrDS3e/fuYDB45MiReDz+0EMP6XS6y5cv19XVGQyGffv2xWKxd955JxQK7dmzJyMjo6Ghobq6Wq1W79+/H4Kgd955x+v17ty5Mzc398aNGxcuXFAoFI899hgEQe+//77D4bjvvvtWrFjR1tb25ZdfisXixx9/HIKgDz74wGq1VlRUmEymrq6u06dP83i8AwcOIAjy8ccfj4yMbNiwYc2aNf39/SdOnGAymQcOHGAymSdOnOjv71+zZs2GDRtGRkY+/vhjBEEOHDjA4/FOnz7d1dVlMpkqKiqsVusHH3wAQdDjjz8uFou//PLLtra2FStW3HfffQ6H4/3334cg6LHHHlMoFBcuXLhx40Zubu7OnTu9Xu8777wDQdD+/fvVanV1dXVDQ0NGRsaePXtCodA777wTi8X27dtnMBjq6uouX76s1+t/+tOfxuPxI0eOBIPB3bt3Z2ZmXrt27dKlS6mpqQ8//DAEQUePHvV4PDt27MjLy2tubj5//rxMJvvFL34BQdCxY8dsNltlZWVRUVF7e/uZM2eEQuETTzwBQdCHH344Pj6+cePGvLy8jo6O6upqHo/36quvdnV1gdXkq6qqTCZTfX39xYsXcRz/1a9+NTw8fPbs2dHR0a1btz799NNTyyovCnP7DpGfnw++osIwjCBIIpEAc5PAitML3wRBEMgPm74JgiCQFjp909RJwKZbnv82mxYrYCo33b4EZlM4YNNUkf7/D6AzSnv6pqnlxH+IuX6HmFs9ByKY/p/pScKLsmn6n7fZtBSXTv5Ni3KSH4KyL7Z0H4KGamjN0VANrTkaqqE1R0M1tOZoqIbWHA3V0JqjoRpaczRUQ53m/H7/+fPnd+3aZTKZDh8+7HA45n2qcDh85cqVY8eO+Xy+xQrPYrEcOnSoqKhoz54933333VztS6YzPj5+5swZMHl2TpAk6XA4XnzxxbKysieffLKuro4giHmHkbQs/pzqWxKJRK5fv15TU3P//fcLhcKGhoba2tqysjIwVX2uJBIJv99vs9lmGinMj4mJicuXL9vt9ldffdXhcJw7dw7H8ZKSkvnN14pGozMdM34UkiTtdvuHH34ol8sPHjw4NDR0/fp1FotVUlIyjxiSGYrquVAoZLVaY7FYZWXlzp079Xp9S0vL5OTkD1lJUozL5RodHU1PT3/ggQe2bt3qcDgGBgYWsRKdDSRJer3e1tbW4uLiqqqqNWvWOByO77//PhKJUBkGBVCnuVgsJhKJJBIJjuNZWVkWi8XpdCbDu4MkSZ/PFwgEwLRcqVQqFotdLpfX66UyjHg87vf7Y7GYRqPBcTwlJQVBEJvNtigWLUkFRZoLBALBYJDJZAJrBaFQGAgEQqFQMtRzBEEAIymhUAhBEIZhAoEgFovdxgR4KYjFYm63OxqNstlsBEFAWcViMbqemyfRaJTin3D2kCQZDoeX3S0LhBGJRGaZXXbnQpHm+Hy+UCicytCKx+PA3IWaq98eFEVFIpFUKgUv+kQiEY/Hp1LWqAwD5OuCIgLpa9SHQQEU3Q+bzcZx3O/3g+d4bGxMIpEIhcJ5+AMvOiiKCgQC4HANQVA4HLZarRwOZ3ETsn8UDMPAy93tdhMEAcqKxWIt40IOSwR1msMwzG63Dw0NBYPBpqamtLQ0hUKRDJqDIIjL5XI4HLPZHAqFBgYGwuGwUqkECqAMBEGAa2dHRwcwKkRRNDMzk8fjURkGBVCnudLS0qKioldeeWX79u2JRKsNBSAAAAlBSURBVKKiomK6d+nyolary8rK/H5/RUXF66+/vnHjxpKSkjm5Fy4cBEEUCsXjjz/+3Xff/eQnPzl58mR+fv6qVauWzSVuyaComkEQJDU19b777ktNTfX7/Tk5OWlpaUvkkDUPmExmZmbmww8/XFpaKhAIioqKFAoFxQ0pGIZZLFZBQcFjjz1msVikUmlOTs5tVmC6c6Hu1YZhmFar1Wq1lF1xTnC5XLCK0jLGAGS3bt26ZYyBApKiOTVXUBQFq9VMd4RNHgQCQXZ2dvLU4snGHak5DMNycnJycnKWO5BbAxz4lzuK5OVuG/uhSX6oq+cSiUQ0Gg0GgyRJslgs8IVn3qciCIIgiEVfJS0ej4dCIRaLtZBBHJIkY7EYDMPzfr1Go9F4PA5s+ecdRtJCXT3n9XrPnDlTUVFhNBr/5V/+ZfrKL3MlHA7X1NQcOXIErLazWMRisd7e3n/4h39obW1dyPKvo6Ojp06dOnfu3LzP8O2337777rtms3neZ0hmKNJcOByuq6urq6v79a9/feHChUAgcPHixYmJiXmfMB6PL25OSjgcbm5uPnjw4MDAwALXGyZJkiCI+eX2kSR5/vz51157zWw2J0MCxFJAUdUdCoXAIsEmk0kqlZrN5s7OzoKCAplMNteVgJcCt9tdX1//6aefbtmy5fr168sVks/n++yzz7q6utasWXP3ffKagjrNATsq8I01PT29sbHR5XKBj/3UxHAbWCyW0WjctWuXXC4HK1QvSxg4jufn56enpw8PDyf5epgLgSLN+f1+v9+PYRhQGJfLDYfD0Wg0SV4fLBYrMzPTYDD09vYuYx4Hk8kEg9Iej2d8fHy5wlhqKCpfkiSTRF40yw51+XN8Pj8ejwPlRSIRsPzh3fcBm+ZHoTR/zuv1BgKBeDw+NDQkk8lEItFdOf5Ec3uo0xyTyXQ6nX19fW6322w2G41GhUKRDB0IGoqhSHMsFmv9+vVr1659/vnni4uLcRyvrKwEHtM0/9eg6NUGw7BEItm+fXtRUVEkElGpVNQnqP0oKIqmpaW9/PLLcrl8gUthL5B169aVlJTcfRnCAOqaUwwGQywWJ3MSIkhf0+v1yx0IBAYylzuKpeKObMKDhc4lEgnF6eOzRCKR3HPPPXT36Ie4I8sFRVGdTqfT6ZY7kFsDFjlZ7iiSl+RqUdH8X4Dqeo4giImJCSaTuZDBuSmHkUWcrRiJRKxWq8ViYbPZOp1OIBDMexwnEon4fD4EQeadLex2u0OhEJ/Pvyu7EZTWc/F4fGRk5O233z5z5sxCXI8ikUhDQ8OHH364WP4xYJj68OHDP/nJT5566qmLFy+63e55ezhYLJZz585999138zs8HA5/9dVXf/7zn9vb2+d3hiSHUs0NDQ299dZbhw8fTjbvkuHh4YsXLzKZzI6Ojn/91389d+5cQ0PDspjTkCR59uzZV155pbm5mfqrUwNF71aCIK5du3b27FmRSPTUU0+xWCxqrjtLgG3UypUreTxeeno6juNWq9XtdlM869vtdn/wwQeDg4OPPPLIXfyFhiLNMRiMnJwcmUwWDAZPnz6dVJ/24/E4aB1qNBoEQXg8nkKh8Pv9Pp+PYs3xeLwHHnggGo22trYODAxQeWkqoe47hEgkEolEdrudmivOHoIgPB6P0+kEs2URBMFxHOSXUxwJiqJgRLq3tzepHsvFhR4rgSAIQhDkLn6XJRu05iAURYVCoVgsBr1ggiACgQCKovRE/CWC1hzEYDD4fD6HwxkcHIzH42632+l00t8Slo478tvXoiMUCuVyeXt7+40bN0ZGRphMJhgWXu647k6orudgGGYymTiOJ1UbWa1Wl5eXwzB87733vvHGG/fdd5/JZFpGAx7wZr9bm5hU13MSieTZZ59FEGR5E9RmolarX3nllZdeeonBYCzQO2LhlJeXb9y48W7NTKH6rkCOGsUXnQ3AWjVJkqOS7YFcXO7IJwnH8eLiYqPRmJyT3ZVKZXl5+d36Zlw4d6TmGAyGTCab31phFMBms9Vq9XJHkbzQYyU0VENrjoZqqH63xmIxi8XCZDKlUulCcjY9Hk8gEFCpVIvYuUskEqFQaGxsLCUlhcPhzHtaWjgc9nq9DAZDKpXONYBYLNbX1+dyufh8vkajEYlESTWotChQWs8RBDE0NPT2229/9dVXC8zZvHbt2kcffbSIa/4lEolAIHDt2rV//ud/7uzsXMgHfqvV+vXXX9fU1Mz1wFgsNjAw8MYbb/zN3/zN66+/XlNTc/ctaghRqblEIgFycf/whz8kW84mBEGhUKipqen5558fHR1drKWI5wRJklar9a233tq8eXNNTc1DDz3U3NxcX19PfSRLDUWaIwjiypUr77//vlQqfe6555JtiM7hcHz++eeHDh06ePBgSkrKsgxzACtjv9+fm5vLZrNzcnIIgujp6VnIKu3JCXU5mwUFBampqYFA4C9/+UuytVEEAkFFRUVOTk48Hq+pqVmW8EAaXyKRAC1doVCIYVggEPD7/ck5DDlvqMvZBJkaSZizCUEQhmFyuVwkEi1jsiRYMzgQCDAYDBiGwVqjJEkuy4t+SaHHSpIFGIZRFAWCW+5YlhZac8kChmEikYjFYoXDYbDCRDwevytTR2nNJQsoivL5fBRFrVZrLBabnJyMx+MSieQua8xBd+j31rsSBEH4fH5aWlpzczOCIN9//71AIAB92OUObZGhup5DEITD4Sz6mkmLBYPB4PF4y5K4hiCIXC5/8sknW1pafv7zn3/zzTfFxcUmk4n6SJYaqgtXLBY/99xzMAwnm+EhBEEYhmVmZr755pugz0h9AAwGQy6X//GPfyRJEoZhDMOSsJQWzjLkbCZz+iv4pZc3gLuv03ATyfvz3wYcx0tKSjIzM5PTtkipVFZUVNA5mz/EHak5kLIx16wNykieHPfk5C5sLtAkObTmaKiG1hwN1dCao6EaWnM0VENrjoZqaM3RUA2tORqqoTVHQzW05miohtYcDdXQmqOhGlpzNFRDa46GamjN0VANrTkaqqE1R0M1tOZoqIbWHA3V0JqjoZo5zMHp6elZujho7lw8Hg9JknM4IDE7lixgmruE9vb2WWoJpvVEQzF0e46GamjN0VANrTkaqqE1R0M1tOZoqIbWHA3V0JqjoRpaczRU8z+H19J6JRyu1wAAAABJRU5ErkJggg==;" vertex="1" parent="1">
                    <mxGeometry x="414" y="430" width="209" height="181" as="geometry"/>
                </mxCell>
            </root>
        </mxGraphModel>
    </diagram>
</mxfile>